# AST/ASF file generated using VICON BodyLanguage
# -----------------------------------------------
:version 1.10
:name VICON
:units
  mass 1.0
  length 0.45
  angle deg
:documentation
   .ast/.asf automatically generated from VICON data using
   VICON BodyBuilder and BodyLanguage model FoxedUp or BRILLIANT.MOD
:root
   order TX TY TZ RX RY RZ
   axis XYZ
   position 0 0 0  
   orientation 0 0 0 
:bonedata
  begin
     id 1 
     name lhipjoint
     direction 0.57768 -0.667037 0.470475 
     length 2.36008 
     axis 0 0 0  XYZ
  end
  begin
     id 2 
     name lfemur
     direction 0.34202 -0.939693 0  
     length 6.97235  
     axis 0 0 20  XYZ
    dof rx ry rz
    limits (-160.0 20.0)
           (-70.0 70.0)
           (-60.0 70.0)
  end
  begin
     id 3 
     name ltibia
     direction 0.34202 -0.939693 0   
     length 6.93428   
     axis 0 0 20   XYZ
    dof rx
    limits (-10.0 170.0)
  end
  begin
     id 4 
     name lfoot
     direction 0.133018 -0.365463 0.921272   
     length 2.18603   
     axis -90 7.62852e-016 20   XYZ
    dof rx rz
    limits (-45.0 90.0)
           (-70.0 20.0)
  end
  begin
     id 5 
     name ltoes
     direction 1.53519e-011 -4.22055e-011 1   
     length 1.07924   
     axis -90 7.62852e-016 20   XYZ
    dof rx
    limits (-90.0 20.0)
  end
  begin
     id 6 
     name rhipjoint
     direction -0.577712 -0.667019 0.470462   
     length 2.36015  
     axis 0 0 0  XYZ 
  end
  begin
     id 7 
     name rfemur
     direction -0.34202 -0.939693 0   
     length 6.71195   
     axis 0 0 -20   XYZ
    dof rx ry rz
    limits (-160.0 20.0)
           (-70.0 70.0)
           (-70.0 60.0)
  end
  begin
     id 8 
     name rtibia
     direction -0.34202 -0.939693 0   
     length 7.04592   
     axis 0 0 -20   XYZ
    dof rx
    limits (-10.0 170.0)
 end
 begin
     id 9 
     name rfoot
     direction -0.113796 -0.312651 0.943027   
     length 2.03846  
     axis -90 -7.62852e-016 -20   XYZ
    dof rx rz
    limits (-45.0 90.0)
           (-20.0 70.0)
  end
  begin
     id 10 
     name rtoes
     direction -1.53586e-011 -4.218e-011 1   
     length 1.01562   
     axis -90 -7.62852e-016 -20   XYZ
    dof rx
    limits (-90.0 20.0)
  end
  begin
     id 11 
     name lowerback
     direction -0.0417299 0.991937 -0.119667   
     length 2.05257   
     axis 0 0 0   XYZ
    dof rx ry rz
    limits (-20.0 45.0)
           (-30.0 30.0)
           (-30.0 30.0)
  end
  begin
     id 12 
     name upperback
     direction -0.00017666 0.999999 0.00105178   
     length 2.05693   
     axis 0 0 0   XYZ
    dof rx ry rz
    limits (-20.0 45.0)
           (-30.0 30.0)
           (-30.0 30.0)
  end
  begin
     id 13 
     name thorax
     direction 0.0185169 0.998203 0.0569866   
     length 2.0932   
     axis 0 0 0   XYZ
    dof rx ry rz
    limits (-20.0 45.0)
           (-30.0 30.0)
           (-30.0 30.0)
  end
  begin
     id 14 
     name lowerneck
     direction -0.0212406 0.982645 0.184277   
     length 1.72509   
     axis 0 0 0   XYZ
    dof rx ry rz
    limits (-20.0 45.0)
           (-30.0 30.0)
           (-30.0 30.0)
  end
  begin
     id 15 
     name upperneck
     direction 0.00528579 0.965323 -0.261004   
     length 1.76294   
     axis 0 0 0   XYZ
    dof rx ry rz
    limits (-20.0 45.0)
           (-30.0 30.0)
           (-30.0 30.0)
  end
  begin
     id 16
     name head
     direction 0.00695421 0.994078 -0.108445  
     length 1.78678  
     axis 0 0 0   XYZ
    dof rx ry rz
    limits (-20.0 45.0)
           (-30.0 30.0)
           (-30.0 30.0)
  end
  begin
     id 17 
     name lclavicle
     direction 0.97277 0.211305 -0.095232  
     length 3.84823  
     axis 0 0 0   XYZ
    dof ry rz
    limits (-20.0 10.0)
           (0.0 20.0)
  end
  begin
     id 18 
     name lhumerus
     direction 1 -4.48957e-011 -1.98313e-027   
     length 4.97185   
     axis 180 -30 -90   XYZ
    dof rx ry rz
    limits (-60.0 90.0)
           (-90.0 90.0)
           (-90.0 90.0)
  end
  begin
     id 19
     name lradius
     direction 1 -4.4898e-011 7.31063e-027   
     length 3.35811   
     axis 180 -30 -90   XYZ
    dof rx
    limits (-10.0 170.0)
  end
  begin
     id 20
     name lwrist
     direction 1 -4.48938e-011 9.95048e-027   
     length 1.67905   
     axis -8.75986e-015 90 90   XYZ
    dof ry
    limits (-180.0 0.0)
 end
  begin
     id 21 
     name lhand
     direction 1 -4.4901e-011 1.9901e-026   
     length 0.622776   
     axis -1.26985e-014 90 90   XYZ
    dof rx rz
    limits (-90.0 90.0)
           (-45.0 45.0)
  end
  begin
     id 22 
     name lfingers
     direction 1 -4.48961e-011 3.98019e-026   
     length 0.502098   
     axis -2.5397e-014 90 90   XYZ
    dof rx
    limits (0.0 90.0)
  end
  begin
     id 23
     name lthumb
     direction 0.707107 -6.34933e-011 0.707107   
     length 0.720915   
     axis -90 45 2.85299e-015   XYZ
    dof rx rz
    limits (-45.0 45.0)
           (-45.0 45.0)
  end
  begin
     id 24 
     name rclavicle
     direction -0.990867 0.133739 -0.0172226   
     length 3.78845  
     axis 0 0 0   XYZ 
    dof ry rz
    limits (-10.0 20.0)
           (-20.0 0.0)
  end
  begin
     id 25 
     name rhumerus
     direction -1 -4.48972e-011 -1.99267e-027  
     length 4.96493   
     axis 180 30 90   XYZ
    dof rx ry rz
    limits (-90.0 60.0)
           (-90.0 90.0)
           (-90.0 90.0)
  end
  begin
     id 26 
     name rradius
     direction -1 -4.48969e-011 8.96093e-027   
     length 3.34929   
     axis 180 30 90   XYZ
    dof rx
    limits (-10.0 170.0)
  end
  begin
     id 27 
     name rwrist
     direction -1 -4.48953e-011 9.95048e-027   
     length 1.67464   
     axis -8.75986e-015 -90 -90   XYZ
    dof ry
    limits (-180.0 0.0)
  end
  begin
     id 28
     name rhand
     direction -1 -4.49001e-011 1.9901e-026   
     length 0.638041   
     axis -1.26985e-014 -90 -90   XYZ
    dof rx rz
    limits (-90.0 90.0)
           (-45.0 45.0)
  end
  begin
     id 29
     name rfingers
     direction -1 -4.48967e-011 3.98019e-026   
     length 0.514405   
     axis -2.5397e-014 -90 -90   XYZ
    dof rx
    limits (0.0 90.0)
  end
  begin
     id 30
     name rthumb
     direction -0.707107 -6.34904e-011 0.707107   
     length 0.738586   
     axis -90 -45 -2.85299e-015   XYZ
    dof rx rz
    limits (-45.0 45.0)
           (-45.0 45.0)
  end
:hierarchy
  begin
    root lhipjoint rhipjoint lowerback
    lhipjoint lfemur
    lfemur ltibia
    ltibia lfoot
    lfoot ltoes
    rhipjoint rfemur
    rfemur rtibia
    rtibia rfoot
    rfoot rtoes
    lowerback upperback
    upperback thorax
    thorax lowerneck lclavicle rclavicle
    lowerneck upperneck
    upperneck head
    lclavicle lhumerus
    lhumerus lradius
    lradius lwrist
    lwrist lhand lthumb
    lhand lfingers
    rclavicle rhumerus
    rhumerus rradius
    rradius rwrist
    rwrist rhand rthumb
    rhand rfingers
  end

#!OML:ASF E:\Mandelcareful walks\Project 1\Capture day 1\Session 1\Subject1.ASF
:FULLY-SPECIFIED
:DEGREES
137
root -3.84422 16.4395 1.09233 127.67 80.2366 123.287
lowerback 25.9266 -0.497224 2.33092
upperback 9.18857 0.774927 -0.189556
thorax -4.16938 0.77669 -1.78928
lowerneck -24.3596 2.65424 -1.08109
upperneck 33.4528 7.67155 -5.87899
head 16.3623 2.40571 -0.688188
rclavicle -7.95139e-015 -1.59028e-015
rhumerus -6.82203 2.17759 -78.6955
rradius 35.6725
rwrist -13.754
rhand -11.901 -31.7947
rfingers 7.12502
rthumb 14.1524 -61.2927
lclavicle -7.95139e-015 -1.59028e-015
lhumerus -19.1448 0.671142 82.9609
lradius 33.3266
lwrist 7.81229
lhand -20.3162 -14.4296
lfingers 7.12502
lthumb 6.03456 15.4645
rfemur -23.485 -18.448 11.6687
rtibia 40.2716
rfoot -21.0318 -9.04738
rtoes 5.37169
lfemur -23.5376 7.30218 -12.6772
ltibia 30.527
lfoot -7.4074 11.8212
ltoes -5.29487
138
root -3.85861 16.42 1.07148 127.025 80.1839 122.545
lowerback 26.4896 -0.488567 2.26727
upperback 9.43321 0.818412 -0.300785
thorax -4.1669 0.819114 -1.89347
lowerneck -24.4182 2.81096 -0.708604
upperneck 33.1755 7.83908 -6.24611
head 16.2865 2.47004 -0.873408
rclavicle 7.15625e-015 2.06736e-014
rhumerus -6.2269 2.35335 -78.6019
rradius 36.2688
rwrist -14.0221
rhand -11.9368 -32.7036
rfingers 7.12502
rthumb 14.1179 -62.2039
lclavicle 7.15625e-015 2.06736e-014
lhumerus -18.6848 -0.0161675 82.7575
lradius 33.9197
lwrist 8.1729
lhand -20.3261 -14.3687
lfingers 7.12502
lthumb 6.025 15.5257
rfemur -23.9921 -18.7367 11.5278
rtibia 40.925
rfoot -21.2815 -8.81366
rtoes 5.78125
lfemur -23.9188 7.59651 -12.6501
ltibia 30.1791
lfoot -5.96855 11.8569
ltoes -7.1428
139
root -3.87801 16.3993 1.04481 127.538 80.1508 122.869
lowerback 26.9827 -0.599005 2.3841
upperback 9.6493 0.752015 -0.386067
thorax -4.16309 0.808943 -2.04053
lowerneck -24.4276 3.02252 -0.479724
upperneck 32.8134 8.08734 -6.50253
head 16.1492 2.56752 -0.968213
rclavicle -2.94201e-014 -1.27222e-014
rhumerus -5.61059 2.74777 -78.5114
rradius 36.8241
rwrist -14.4961
rhand -12.1182 -33.2077
rfingers 7.12502
rthumb 13.9431 -62.7202
lclavicle -2.94201e-014 -1.27222e-014
lhumerus -18.1451 -0.592518 82.5082
lradius 34.3329
lwrist 8.63868
lhand -20.4299 -14.7913
lfingers 7.12502
lthumb 5.92482 15.1059
rfemur -24.6129 -19.0849 11.5227
rtibia 41.6119
rfoot -21.4936 -8.54852
rtoes 5.68396
lfemur -24.529 7.81963 -12.5669
ltibia 30.038
lfoot -4.35331 11.7403
ltoes -8.48634
140
root -3.89906 16.3731 1.01019 127.764 80.1236 122.83
lowerback 27.8681 -0.663318 2.33323
upperback 9.57619 0.69542 -0.405051
thorax -4.66767 0.778809 -2.03268
lowerneck -24.5837 3.2188 -0.427114
upperneck 32.797 8.38008 -6.56746
head 16.1987 2.67772 -0.941471
rclavicle 7.95139e-015 3.81667e-014
rhumerus -5.31365 3.27069 -78.3987
rradius 37.3384
rwrist -14.8291
rhand -12.4571 -33.1167
rfingers 7.12502
rthumb 13.6164 -62.6514
lclavicle 7.95139e-015 3.81667e-014
lhumerus -17.8711 -0.940648 82.3506
lradius 34.5534
lwrist 9.04602
lhand -20.7674 -15.4569
lfingers 7.12502
lthumb 5.59889 14.4491
rfemur -25.39 -19.4595 11.4857
rtibia 42.3185
rfoot -21.5748 -8.31657
rtoes 5.13724
lfemur -25.2715 8.04634 -12.5726
ltibia 30.1052
lfoot -3.02765 11.6162
ltoes -9.65632
141
root -3.92029 16.3417 0.966624 126.583 80.1502 121.318
lowerback 28.4845 -0.616182 2.24268
upperback 9.62233 0.755262 -0.562783
thorax -4.90209 0.814349 -2.18394
lowerneck -25.0174 3.27234 -0.606918
upperneck 33.108 8.45356 -6.21811
head 16.4217 2.70958 -0.741346
rclavicle 2.06736e-014 2.70347e-014
rhumerus -4.88881 3.32546 -78.4336
rradius 37.8404
rwrist -14.8694
rhand -12.5876 -33.054
rfingers 7.12502
rthumb 13.4907 -62.597
lclavicle 2.06736e-014 2.70347e-014
lhumerus -17.3341 -1.36642 82.0845
lradius 34.6457
lwrist 9.23329
lhand -21.0386 -15.9417
lfingers 7.12502
lthumb 5.3371 13.9711
rfemur -26.3587 -19.7536 11.3425
rtibia 43.0842
rfoot -21.6417 -7.93931
rtoes 4.20584
lfemur -26.0739 8.41317 -12.7634
ltibia 30.4656
lfoot -2.31412 11.556
ltoes -11.9468
142
root -3.93833 16.305 0.920784 125.828 80.1871 120.277
lowerback 29.1518 -0.56815 2.1227
upperback 9.64284 0.811663 -0.652859
thorax -5.1887 0.845258 -2.24581
lowerneck -24.6526 3.48572 -0.0885761
upperneck 32.5787 8.73805 -6.93567
head 16.17 2.81362 -1.07929
rclavicle 2.38542e-015 1.90833e-014
rhumerus -4.42629 3.37046 -78.4249
rradius 38.1673
rwrist -14.9695
rhand -12.5661 -32.8027
rfingers 7.12502
rthumb 13.5115 -62.3444
lclavicle 2.38542e-015 1.90833e-014
lhumerus -16.9813 -1.88108 81.8602
lradius 34.9792
lwrist 9.41521
lhand -21.0825 -15.7998
lfingers 7.12502
lthumb 5.29465 14.114
rfemur -27.2811 -20.0028 11.226
rtibia 43.9373
rfoot -21.7883 -7.56643
rtoes 3.82695
lfemur -26.9006 8.91576 -13.0132
ltibia 31.1074
lfoot -2.13705 11.4194
ltoes -14.2411
143
root -3.95143 16.267 0.871962 125.536 80.3076 119.71
lowerback 29.8614 -0.55149 2.06616
upperback 9.63044 0.844169 -0.71671
thorax -5.53067 0.862434 -2.31036
lowerneck -25.1888 3.55621 -0.311812
upperneck 33.1363 8.90424 -6.57468
head 16.5409 2.87068 -0.847105
rclavicle 2.38542e-015 -4.45278e-014
rhumerus -3.94096 3.67928 -78.4189
rradius 38.3997
rwrist -15.3074
rhand -12.6907 -32.484
rfingers 7.12502
rthumb 13.3913 -62.0337
lclavicle 2.38542e-015 -4.45278e-014
lhumerus -16.7569 -2.32049 81.5896
lradius 35.4601
lwrist 9.64368
lhand -20.7665 -15.2076
lfingers 7.12502
lthumb 5.59977 14.6984
rfemur -28.1798 -20.1845 11.2183
rtibia 44.8719
rfoot -21.995 -7.25507
rtoes 3.92976
lfemur -27.7607 9.63813 -13.2665
ltibia 32.0259
lfoot -2.14869 11.2617
ltoes -15.2683
144
root -3.96214 16.2253 0.815117 124.318 80.4224 118.178
lowerback 30.4647 -0.472412 1.98458
upperback 9.63341 0.933535 -0.885789
thorax -5.79914 0.908587 -2.49555
lowerneck -25.2446 3.71657 -0.0110561
upperneck 33.0385 9.10045 -6.84046
head 16.5522 2.94904 -0.970013
rclavicle -5.56597e-015 3.18055e-015
rhumerus -3.52951 4.07411 -78.4285
rradius 38.8012
rwrist -15.613
rhand -12.5773 -32.7449
rfingers 7.12502
rthumb 13.5007 -62.2873
lclavicle -5.56597e-015 3.18055e-015
lhumerus -16.4365 -2.80376 81.2251
lradius 35.7878
lwrist 9.84835
lhand -20.423 -15.1125
lfingers 7.12502
lthumb 5.93143 14.7844
rfemur -29.1719 -20.2801 11.0951
rtibia 45.8735
rfoot -22.2077 -6.86355
rtoes 3.81028
lfemur -28.6509 10.454 -13.7187
ltibia 33.1385
lfoot -2.19507 10.9441
ltoes -16.0397
145
root -3.96766 16.1789 0.753865 122.863 80.5461 116.414
lowerback 30.7748 -0.353502 1.85005
upperback 9.79889 1.06544 -1.01744
thorax -5.74627 0.986057 -2.61434
lowerneck -25.3911 3.77139 -0.0398551
upperneck 32.8936 9.20268 -6.92752
head 16.5254 2.97018 -0.977555
rclavicle 2.78299e-014 5.96354e-014
rhumerus -2.96228 4.4118 -78.3301
rradius 39.3446
rwrist -15.5918
rhand -12.2787 -33.4023
rfingers 7.12502
rthumb 13.7884 -62.9253
lclavicle 2.78299e-014 5.96354e-014
lhumerus -15.8534 -3.2908 80.9379
lradius 36.0716
lwrist 10.0522
lhand -20.72 -15.5283
lfingers 7.12502
lthumb 5.64468 14.3765
rfemur -30.1829 -20.301 10.9492
rtibia 46.9204
rfoot -22.3666 -6.58454
rtoes 3.25651
lfemur -29.5481 11.301 -14.2355
ltibia 34.3138
lfoot -2.5077 10.3545
ltoes -16.4278
146
root -3.97257 16.1303 0.695377 122.28 80.7426 115.543
lowerback 30.6677 -0.256538 1.84819
upperback 10.2289 1.22753 -1.11226
thorax -5.19873 1.09973 -2.76158
lowerneck -25.4823 3.81448 -0.00543297
upperneck 32.4464 9.24835 -7.14273
head 16.3464 2.96615 -1.0617
rclavicle 2.38542e-015 -1.43125e-014
rhumerus -2.07987 4.43633 -78.2315
rradius 39.8682
rwrist -15.3803
rhand -12.521 -33.5483
rfingers 7.12502
rthumb 13.5549 -63.0871
lclavicle 2.38542e-015 -1.43125e-014
lhumerus -14.8593 -3.78638 80.6512
lradius 36.4204
lwrist 10.2323
lhand -21.1049 -15.5335
lfingers 7.12502
lthumb 5.27309 14.3809
rfemur -31.1774 -20.3044 10.9769
rtibia 47.9867
rfoot -22.4999 -6.55351
rtoes 2.63188
lfemur -30.5183 12.1576 -14.6123
ltibia 35.4797
lfoot -3.10235 9.89937
ltoes -15.7085
147
root -3.97919 16.077 0.638715 123.231 80.7857 116.266
lowerback 31.1946 -0.208705 1.84201
upperback 10.281 1.31425 -1.1588
thorax -5.37292 1.14916 -2.85423
lowerneck -25.2894 3.91699 0.279826
upperneck 32.1553 9.36927 -7.50861
head 16.2111 3.01353 -1.24117
rclavicle -1.03368e-014 -2.38542e-014
rhumerus -1.86337 4.55164 -78.1667
rradius 40.4356
rwrist -15.3911
rhand -12.8805 -33.6425
rfingers 7.12502
rthumb 13.2084 -63.2041
lclavicle -1.03368e-014 -2.38542e-014
lhumerus -14.4365 -4.44803 80.3725
lradius 36.8621
lwrist 10.3658
lhand -21.2705 -15.3436
lfingers 7.12502
lthumb 5.1132 14.5747
rfemur -32.0304 -20.43 10.9334
rtibia 49.0514
rfoot -22.7817 -6.55901
rtoes 2.46957
lfemur -31.5648 12.702 -14.9913
ltibia 36.6592
lfoot -3.87032 9.58507
ltoes -14.9549
148
root -3.98323 16.0243 0.578861 124.556 80.6479 117.34
lowerback 31.7204 -0.215241 1.79156
upperback 10.3204 1.31705 -1.24339
thorax -5.56417 1.15842 -2.93652
lowerneck -25.2678 4.04297 0.538052
upperneck 31.9629 9.53239 -7.81658
head 16.162 3.07365 -1.38006
rclavicle 1.59028e-014 -1.66979e-014
rhumerus -1.62786 4.75592 -78.1008
rradius 40.9748
rwrist -15.5078
rhand -13.0977 -33.7545
rfingers 7.12502
rthumb 12.9991 -63.3296
lclavicle 1.59028e-014 -1.66979e-014
lhumerus -14.0313 -5.21436 80.0318
lradius 37.3436
lwrist 10.4837
lhand -21.5471 -15.2821
lfingers 7.12502
lthumb 4.84605 14.6425
rfemur -32.8463 -20.7387 10.711
rtibia 50.098
rfoot -23.136 -6.391
rtoes 2.62504
lfemur -32.6786 13.1153 -15.5589
ltibia 37.8875
lfoot -4.62499 9.12281
ltoes -14.7701
149
root -3.98767 15.9713 0.519942 125.985 80.6074 118.486
lowerback 32.2814 -0.236252 1.6891
upperback 10.3405 1.28795 -1.27184
thorax -5.79642 1.14875 -2.9163
lowerneck -25.3953 4.23777 0.684581
upperneck 31.7876 9.82066 -8.05696
head 16.1537 3.1734 -1.4416
rclavicle 4.21423e-014 3.18055e-014
rhumerus -1.0637 5.17229 -78.003
rradius 41.3442
rwrist -15.4831
rhand -13.3213 -33.4722
rfingers 7.12502
rthumb 12.7835 -63.0608
lclavicle 4.21423e-014 3.18055e-014
lhumerus -13.6718 -5.63518 79.6814
lradius 37.883
lwrist 10.5129
lhand -21.7226 -14.9453
lfingers 7.12502
lthumb 4.67663 14.9831
rfemur -33.7169 -21.039 10.6355
rtibia 51.1368
rfoot -23.4486 -6.30428
rtoes 2.36518
lfemur -33.8775 13.6782 -16.0579
ltibia 39.2145
lfoot -5.27592 8.53416
ltoes -14.2741
150
root -3.98807 15.9139 0.466031 128.057 80.5447 120.412
lowerback 33.2663 -0.296229 1.59893
upperback 10.0288 1.24591 -1.34242
thorax -5.93961 1.15003 -2.7336
lowerneck -25.5101 4.36306 0.651294
upperneck 31.5519 10.048 -8.23482
head 16.095 3.23768 -1.45768
rclavicle 8.74653e-015 3.73715e-014
rhumerus -0.326337 5.72283 -77.8428
rradius 41.6471
rwrist -15.595
rhand -13.5545 -33.2757
rfingers 7.12502
rthumb 12.5587 -62.8783
lclavicle 8.74653e-015 3.73715e-014
lhumerus -13.2011 -5.90743 79.3738
lradius 38.3788
lwrist 10.6507
lhand -21.7544 -14.7776
lfingers 7.12502
lthumb 4.64589 15.1514
rfemur -34.3534 -21.1951 10.5669
rtibia 52.1781
rfoot -23.7827 -6.55759
rtoes 1.68394
lfemur -34.9852 14.08 -16.3834
ltibia 40.6455
lfoot -5.92471 7.93922
ltoes -13.4766
